<mxfile host="65bd71144e">
    <diagram id="hCOjujSpBskjphYUv4i9" name="第 1 页">
        <mxGraphModel dx="1066" dy="689" grid="1" gridSize="10" guides="1" tooltips="1" connect="1" arrows="1" fold="1" page="1" pageScale="1" pageWidth="827" pageHeight="1169" math="0" shadow="0">
            <root>
                <mxCell id="0"/>
                <mxCell id="1" parent="0"/>
                <mxCell id="3" value="" style="html=1;dropTarget=0;" parent="1" vertex="1">
                    <mxGeometry x="120" y="440" width="490" height="280" as="geometry"/>
                </mxCell>
                <mxCell id="4" value="" style="shape=module;jettyWidth=8;jettyHeight=4;" parent="3" vertex="1">
                    <mxGeometry x="1" width="20" height="20" relative="1" as="geometry">
                        <mxPoint x="-27" y="7" as="offset"/>
                    </mxGeometry>
                </mxCell>
                <mxCell id="11" style="edgeStyle=none;html=1;endArrow=none;endFill=0;" parent="1" source="5" target="3" edge="1">
                    <mxGeometry relative="1" as="geometry"/>
                </mxCell>
                <mxCell id="5" value="woker01" style="html=1;dropTarget=0;" parent="1" vertex="1">
                    <mxGeometry x="70" y="840" width="120" height="60" as="geometry"/>
                </mxCell>
                <mxCell id="6" value="" style="shape=module;jettyWidth=8;jettyHeight=4;" parent="5" vertex="1">
                    <mxGeometry x="1" width="20" height="20" relative="1" as="geometry">
                        <mxPoint x="-27" y="7" as="offset"/>
                    </mxGeometry>
                </mxCell>
                <mxCell id="14" style="edgeStyle=none;html=1;endArrow=none;endFill=0;" parent="1" source="7" target="3" edge="1">
                    <mxGeometry relative="1" as="geometry"/>
                </mxCell>
                <mxCell id="7" value="woker02" style="html=1;dropTarget=0;" parent="1" vertex="1">
                    <mxGeometry x="290" y="840" width="120" height="60" as="geometry"/>
                </mxCell>
                <mxCell id="8" value="" style="shape=module;jettyWidth=8;jettyHeight=4;" parent="7" vertex="1">
                    <mxGeometry x="1" width="20" height="20" relative="1" as="geometry">
                        <mxPoint x="-27" y="7" as="offset"/>
                    </mxGeometry>
                </mxCell>
                <mxCell id="13" style="edgeStyle=none;html=1;endArrow=none;endFill=0;" parent="1" source="9" target="3" edge="1">
                    <mxGeometry relative="1" as="geometry"/>
                </mxCell>
                <mxCell id="9" value="woker..." style="html=1;dropTarget=0;" parent="1" vertex="1">
                    <mxGeometry x="490" y="840" width="120" height="60" as="geometry"/>
                </mxCell>
                <mxCell id="10" value="" style="shape=module;jettyWidth=8;jettyHeight=4;" parent="9" vertex="1">
                    <mxGeometry x="1" width="20" height="20" relative="1" as="geometry">
                        <mxPoint x="-27" y="7" as="offset"/>
                    </mxGeometry>
                </mxCell>
                <mxCell id="15" value="BPMN design" style="html=1;" parent="1" vertex="1">
                    <mxGeometry x="140" y="510" width="110" height="50" as="geometry"/>
                </mxCell>
                <mxCell id="19" value="REST API" style="html=1;" parent="1" vertex="1">
                    <mxGeometry x="290" y="510" width="110" height="50" as="geometry"/>
                </mxCell>
                <mxCell id="20" value="SCHEDULER" style="html=1;" parent="1" vertex="1">
                    <mxGeometry x="140" y="590" width="110" height="50" as="geometry"/>
                </mxCell>
                <mxCell id="24" value="Camunda-Work" style="text;html=1;align=center;verticalAlign=middle;resizable=0;points=[];autosize=1;strokeColor=none;fillColor=none;" parent="1" vertex="1">
                    <mxGeometry x="140" y="450" width="110" height="30" as="geometry"/>
                </mxCell>
                <mxCell id="25" value="TASK LIST" style="html=1;" parent="1" vertex="1">
                    <mxGeometry x="290" y="590" width="110" height="50" as="geometry"/>
                </mxCell>
                <mxCell id="26" value="MONITOR" style="html=1;" parent="1" vertex="1">
                    <mxGeometry x="450" y="590" width="110" height="50" as="geometry"/>
                </mxCell>
            </root>
        </mxGraphModel>
    </diagram>
</mxfile>